<?xml version="1.0" standalone="no"?>
<!DOCTYPE svg PUBLIC "-//W3C//DTD SVG 20010904//EN"
 "http://www.w3.org/TR/2001/REC-SVG-20010904/DTD/svg10.dtd">
<svg version="1.0" xmlns="http://www.w3.org/2000/svg"
 width="1943.000000pt" height="1943.000000pt" viewBox="0 0 1943.000000 1943.000000"
 preserveAspectRatio="xMidYMid meet">
<metadata>
Created by potrace 1.14, written by Peter Selinger 2001-2017
</metadata>
<g transform="translate(0.000000,1943.000000) scale(0.100000,-0.100000)"
fill="#000000" stroke="none">
<path d="M9594 18179 c-43 -73 -81 -137 -83 -143 -2 -5 -8 -15 -13 -21 -5 -5
-98 -158 -208 -340 -109 -181 -314 -523 -457 -759 -142 -236 -267 -444 -278
-462 -80 -133 -218 -362 -226 -374 -5 -8 -26 -44 -48 -80 -21 -36 -116 -193
-211 -350 -94 -157 -177 -294 -183 -305 -7 -11 -19 -31 -28 -45 -9 -14 -26
-41 -37 -61 -42 -76 -47 -84 -52 -89 -3 -3 -96 -156 -206 -340 -111 -184 -353
-587 -539 -895 -186 -308 -389 -645 -452 -750 -63 -104 -215 -356 -339 -560
-123 -203 -227 -376 -231 -384 -6 -13 -232 -389 -253 -421 -5 -8 -19 -31 -30
-50 -11 -19 -29 -48 -39 -65 -10 -16 -105 -174 -211 -350 -172 -284 -236 -390
-291 -483 -67 -113 -437 -726 -484 -802 -32 -52 -65 -108 -75 -125 -9 -16 -43
-72 -74 -123 -31 -51 -56 -96 -56 -99 0 -4 -8 -15 -17 -25 -16 -18 -16 -20 12
-43 17 -13 33 -24 38 -25 4 0 24 -11 45 -24 20 -13 127 -77 237 -142 110 -64
259 -152 330 -194 72 -43 254 -150 405 -240 151 -89 383 -226 515 -305 132
-78 330 -195 440 -260 110 -65 250 -148 310 -184 61 -36 126 -75 146 -86 19
-11 115 -67 212 -125 98 -58 185 -110 195 -115 9 -6 62 -37 117 -70 55 -33
109 -64 120 -70 11 -6 130 -77 265 -157 135 -80 346 -205 470 -278 124 -73
257 -152 295 -175 39 -23 198 -117 355 -210 157 -92 301 -178 321 -191 19 -13
39 -24 43 -24 4 0 20 -8 34 -19 15 -10 88 -54 164 -99 l136 -80 154 90 c84 49
165 99 180 109 15 10 29 19 32 19 3 0 53 29 111 65 59 36 108 65 109 65 3 0
166 95 206 120 8 5 109 64 223 132 114 68 220 131 235 140 15 10 34 21 42 25
8 3 31 16 50 29 42 26 257 153 285 168 11 6 97 57 190 112 215 128 980 581
1020 604 17 10 83 49 149 89 65 39 120 71 123 71 2 0 32 17 66 39 34 21 152
92 262 156 175 104 372 220 570 338 33 19 105 61 160 93 55 32 102 61 103 66
2 4 8 8 13 8 5 0 80 42 167 94 467 278 609 362 627 372 11 6 48 28 83 48 l63
37 -20 32 c-10 18 -43 72 -72 121 -30 50 -65 109 -79 132 -99 166 -347 574
-396 653 -22 37 -43 73 -47 81 -4 8 -16 29 -26 45 -29 47 -313 518 -325 540
-6 11 -25 40 -41 65 -16 25 -33 54 -39 65 -6 11 -70 117 -141 235 -71 118
-134 223 -140 232 -5 9 -28 47 -50 84 -22 36 -47 78 -56 93 -23 36 -763 1265
-833 1381 -31 52 -60 102 -66 110 -40 65 -157 259 -166 275 -6 11 -102 171
-214 355 -174 288 -429 710 -481 798 -28 48 -537 892 -824 1367 -153 253 -286
474 -295 490 -10 17 -76 127 -147 245 -72 118 -268 445 -438 725 -169 281
-312 516 -319 523 -10 10 -28 -13 -92 -119z"/>
<path d="M4465 8649 c17 -26 50 -73 210 -297 88 -123 172 -240 186 -260 14
-21 43 -62 65 -93 56 -82 410 -577 469 -658 28 -38 56 -77 63 -87 7 -11 145
-206 308 -434 162 -228 323 -455 357 -503 53 -75 143 -201 239 -334 34 -47
141 -198 404 -568 129 -181 241 -338 249 -348 8 -9 15 -20 15 -23 0 -3 14 -24
32 -46 17 -22 41 -54 53 -71 89 -132 720 -1013 727 -1015 4 -2 8 -8 8 -13 0
-5 49 -78 109 -162 60 -83 119 -165 131 -182 11 -16 47 -66 79 -110 32 -44 80
-111 106 -150 27 -38 53 -74 57 -80 5 -5 85 -118 179 -250 93 -132 192 -271
220 -310 91 -126 179 -249 225 -315 25 -36 69 -99 99 -140 30 -41 67 -93 82
-115 15 -22 41 -59 58 -81 16 -23 36 -50 43 -60 7 -11 85 -121 175 -247 89
-125 184 -259 211 -297 27 -39 52 -70 55 -70 3 1 38 46 76 101 39 55 84 119
101 142 17 23 51 71 75 105 63 91 75 107 169 239 46 65 190 267 319 448 128
182 246 346 260 365 14 19 35 48 47 65 47 70 526 741 539 757 8 10 27 37 42
60 15 24 30 45 33 48 3 3 132 183 286 400 483 679 615 864 630 885 27 36 163
229 210 295 25 36 62 88 82 117 127 177 479 670 604 848 82 116 154 217 161
225 7 8 77 107 157 220 123 175 172 244 275 385 7 11 107 151 220 310 113 160
217 306 231 325 36 51 281 394 409 575 61 85 130 183 155 218 123 168 143 199
119 186 -13 -7 -143 -83 -289 -169 -146 -86 -299 -176 -340 -200 -41 -23 -98
-58 -127 -76 -28 -19 -54 -34 -57 -34 -4 0 -23 -11 -44 -24 -37 -23 -229 -137
-293 -174 -19 -11 -81 -48 -139 -82 -58 -34 -121 -72 -140 -82 -36 -21 -262
-154 -530 -313 -85 -50 -222 -131 -305 -180 -82 -48 -204 -120 -270 -160 -66
-39 -189 -111 -273 -161 -84 -49 -165 -96 -180 -105 -81 -48 -264 -156 -312
-184 -89 -52 -332 -196 -365 -216 -16 -10 -36 -22 -43 -25 -7 -4 -72 -42 -143
-85 -72 -44 -132 -79 -134 -79 -2 0 -51 -29 -110 -65 -59 -36 -109 -65 -111
-65 -1 0 -65 -38 -142 -83 -77 -46 -146 -87 -153 -91 -8 -4 -23 -12 -34 -19
-44 -27 -271 -162 -290 -173 -11 -6 -101 -58 -200 -117 l-179 -105 -27 19
c-15 10 -30 19 -33 19 -4 0 -35 17 -69 39 -34 21 -152 91 -262 156 -110 65
-274 162 -365 215 -91 53 -244 144 -340 200 -96 57 -229 136 -295 175 -66 39
-160 95 -210 124 -49 29 -97 56 -105 61 -41 26 -159 95 -185 110 -62 36 -698
411 -780 461 -16 10 -41 24 -55 32 -27 15 -511 300 -700 412 -63 38 -124 74
-135 80 -27 14 -195 113 -340 201 -66 39 -136 81 -155 91 -19 11 -135 79 -258
152 -123 73 -238 140 -255 150 -18 10 -81 48 -142 84 -60 36 -150 89 -200 118
-91 53 -212 124 -274 162 -23 14 -31 16 -26 6z"/>
</g>
</svg>
